<svg width="512" height="512" xmlns="http://www.w3.org/2000/svg">
 <g>
  <title>background</title>
  <rect x="-1" y="-1" width="514" height="514" id="canvas_background" fill="none"/>
  <g id="canvasGrid" display="none">
   <rect id="svg_2" width="100%" height="100%" x="0" y="0" stroke-width="0" fill="url(#gridpattern)"/>
  </g>
 </g>

 <g>
  <title>APK Support</title>
  <g stroke="null" id="svg_3">
   <path stroke="#78c257" fill="#78c257" stroke-width="0.5" d="m488.880856,175.977816l-103.816977,29.317107c-9.512389,-25.807007 -23.834435,-48.176735 -41.166993,-65.981505l54.9011,-98.935923c4.827479,-8.729699 1.85261,-19.859946 -6.769038,-24.824817c-8.532699,-4.928613 -19.416685,-1.855144 -24.226343,6.856273l-52.086621,93.879946c-10.759239,-6.965507 -22.088595,-12.530631 -33.845502,-16.295305c-7.41044,-26.134249 -29.427908,-43.848221 -54.473707,-46.594448c-0.017821,-0.072669 -0.035642,-0.145492 -0.053463,-0.218162c-1.086617,-4.401184 -1.656578,-8.365891 -1.745684,-11.821451c-0.089105,-3.437278 0.213853,-6.383538 0.819457,-8.711416c0.659067,-2.36429 1.40724,-4.273821 2.226696,-5.765156c2.600782,-4.728581 6.056507,-7.820333 10.278382,-9.257128c0.409728,5.110517 2.529498,8.766111 6.27036,10.930368c2.761016,1.600417 5.985223,2.091434 9.726085,1.564005c3.758683,-0.563841 6.69791,-2.764356 8.835501,-6.601853c1.870431,-3.382737 2.262338,-7.074588 1.14008,-11.039295c-1.14008,-3.982836 -3.616115,-7.056459 -7.374798,-9.220717c-2.743195,-1.582134 -5.593472,-2.382419 -8.586006,-2.346008c-2.974869,0.018129 -5.825146,0.618381 -8.568341,1.764038c-2.72553,1.14581 -5.272849,2.909848 -7.641958,5.25601c-2.351444,2.346008 -4.293003,4.928613 -5.878453,7.74751c-2.351444,4.255692 -3.847789,9.020684 -4.453392,14.240282c-0.587783,5.201316 -0.659067,10.275422 -0.16039,15.276858c0.302958,2.909848 1.086617,5.474172 1.674556,8.165858c-6.680089,-0.381937 -13.50259,0.036412 -20.307426,1.964071c-8.586006,2.418831 -16.263606,6.547313 -22.801282,11.875992c-0.926227,-3.128164 -1.745684,-6.256174 -3.206386,-9.42075c-2.066307,-4.528548 -4.68491,-8.83878 -7.802347,-13.021649c-3.170744,-4.16474 -6.840322,-7.456525 -11.008577,-9.875509c-2.743351,-1.564005 -5.71822,-2.746073 -8.924606,-3.52823c-3.206386,-0.782003 -6.27036,-0.945624 -9.191766,-0.491018s-5.6646,1.454924 -8.247562,2.982671c-2.600782,1.527747 -4.631603,3.728263 -6.199232,6.492619c-2.11977,3.837497 -2.67191,7.783921 -1.674399,11.766911c1.033153,4.019247 3.224207,6.983636 6.53752,8.911449c3.740862,2.164257 7.392619,2.509783 10.884143,1.018447c3.491367,-1.491336 6.003044,-3.619182 7.570673,-6.456361c2.11977,-3.819215 2.101949,-8.056624 -0.124748,-12.639712c4.346466,-1.000318 8.853322,-0.145492 13.484769,2.564323c1.442882,0.818414 3.046153,2.091434 4.809658,3.782803c1.728019,1.67324 3.43806,4.03753 5.094638,7.056459c1.674556,3.019083 3.188722,6.692805 4.471214,11.057578c0.231674,0.800132 0.409728,1.782321 0.623425,2.655275c-16.227963,15.058543 -24.172879,37.97383 -19.559097,61.052892c-10.367488,10.620947 -19.096062,23.097191 -25.954205,37.009923l-91.917502,-53.214276c-8.55052,-4.928613 -19.452327,-1.855144 -24.297627,6.856273c-4.827479,8.766111 -1.816968,19.896358 6.733396,24.861383l96.923191,56.051455c-5.896274,24.370211 -6.893785,51.050172 -2.084128,78.148482l-103.816977,29.335236c-9.512389,2.673404 -15.070219,12.712535 -12.433794,22.387858c2.618604,9.638911 12.415973,15.331398 21.928362,12.621583l104.725383,-29.58981c8.960248,19.223282 24.279806,41.465648 42.235788,62.616897l-56.896279,102.554951c-4.8453,8.747828 -1.85261,19.859946 6.733552,24.78856c4.257361,2.491654 9.120482,2.94626 13.50259,1.709651c4.41775,-1.236762 8.354488,-4.164893 10.759239,-8.566078l51.570122,-92.91604c48.096264,47.176417 101.25168,74.983906 102.926236,19.150767c28.465882,46.558036 61.474262,-6.147247 80.196238,-72.310502l92.683496,53.596213c4.275182,2.509783 9.156124,2.94626 13.573874,1.709651c4.382108,-1.21848 8.318846,-4.16474 10.741574,-8.565924c4.845143,-8.71157 1.852454,-19.841817 -6.715731,-24.770431l-101.554638,-58.724859c5.183744,-27.371165 7.517367,-54.251159 5.682578,-75.256762l104.849974,-29.58981c9.441261,-2.673558 15.08804,-12.676277 12.398152,-22.3516c-2.636268,-9.675323 -12.469436,-15.349527 -21.946183,-12.676123l0,0l0.000156,0z" id="svg_1"/>
   <path stroke="#ffffff" fill="none" stroke-width="0.5" fill-opacity="null" d="m181.001332,91.498801l0,0c0,-5.555598 4.491848,-10.059411 10.032795,-10.059411l0,0c2.660968,0 5.21282,1.059775 7.094351,2.94626c1.88153,1.886639 2.938445,4.445277 2.938445,7.113151l0,0c0,5.555752 -4.491848,10.059564 -10.032795,10.059564l0,0c-5.540947,0 -10.032795,-4.503812 -10.032795,-10.059564zm5.016476,0l0,0c0,2.777876 2.245924,5.029859 5.01632,5.029859c2.770552,0 5.016476,-2.251983 5.016476,-5.029859c0,-2.777722 -2.245924,-5.029705 -5.016476,-5.029705l0,0c-2.770395,0 -5.01632,2.251983 -5.01632,5.029705z" id="svg_6"/>
   <path stroke="#ffffff" fill="none" stroke-width="0.5" d="m224.924807,80.966655l0,0c0,-5.27798 4.491848,-9.556717 10.032795,-9.556717l0,0c2.660968,0 5.21282,1.006924 7.094351,2.799078c1.88153,1.792307 2.938445,4.222968 2.938445,6.757639l0,0c0,5.27798 -4.491848,9.556563 -10.032795,9.556563l0,0c-5.540947,0 -10.032795,-4.278583 -10.032795,-9.556563l0,0zm5.016476,0l0,0c0,2.63899 2.245924,4.778205 5.01632,4.778205c2.770552,0 5.016476,-2.139215 5.016476,-4.778205c0,-2.63899 -2.245924,-4.778358 -5.016476,-4.778358l0,0c-2.770395,0 -5.01632,2.139369 -5.01632,4.778358z" id="svg_7"/>
  </g>
 </g>
</svg>